{
  "asset": {
    "version": "2.0",
    "generator": "Computer_Graphics legacy converter"
  },
  "extras": {
    "source": "legacy/2022CG_Lab3/Mesh/bench.obj"
  },
  "buffers": [
    {
      "uri": "bench_from_obj.bin",
      "byteLength": 8544
    }
  ],
  "bufferViews": [
    {
      "buffer": 0,
      "byteOffset": 0,
      "byteLength": 3168,
      "target": 34962
    },
    {
      "buffer": 0,
      "byteOffset": 3168,
      "byteLength": 5376,
      "target": 34963
    }
  ],
  "accessors": [
    {
      "bufferView": 0,
      "componentType": 5126,
      "count": 264,
      "type": "VEC3",
      "min": [
        -1.0,
        -1.0,
        -0.5
      ],
      "max": [
        1.0,
        1.0,
        0.5
      ]
    },
    {
      "bufferView": 1,
      "componentType": 5125,
      "count": 1344,
      "type": "SCALAR"
    }
  ],
  "materials": [
    {
      "name": "bench_showcase_material",
      "pbrMetallicRoughness": {
        "baseColorFactor": [
          0.42,
          0.12,
          0.035,
          1.0
        ],
        "metallicFactor": 0.0,
        "roughnessFactor": 0.62
      }
    }
  ],
  "meshes": [
    {
      "primitives": [
        {
          "attributes": {
            "POSITION": 0
          },
          "indices": 1,
          "material": 0
        }
      ]
    }
  ],
  "nodes": [
    {
      "mesh": 0
    }
  ],
  "scenes": [
    {
      "nodes": [
        0
      ]
    }
  ],
  "scene": 0
}
