{
  "asset": {
    "version": "2.0",
    "generator": "Computer_Graphics legacy converter"
  },
  "extras": {
    "source": "legacy/2022CG_Lab3/Mesh/bunny.obj"
  },
  "buffers": [
    {
      "uri": "bunny_from_obj.bin",
      "byteLength": 89652
    }
  ],
  "bufferViews": [
    {
      "buffer": 0,
      "byteOffset": 0,
      "byteLength": 30036,
      "target": 34962
    },
    {
      "buffer": 0,
      "byteOffset": 30036,
      "byteLength": 59616,
      "target": 34963
    }
  ],
  "accessors": [
    {
      "bufferView": 0,
      "componentType": 5126,
      "count": 2503,
      "type": "VEC3",
      "min": [
        -0.09438042,
        0.0333099,
        -0.06167917
      ],
      "max": [
        0.0607788,
        0.18699602,
        0.05871464
      ]
    },
    {
      "bufferView": 1,
      "componentType": 5125,
      "count": 14904,
      "type": "SCALAR"
    }
  ],
  "materials": [
    {
      "pbrMetallicRoughness": {
        "baseColorFactor": [
          0.18,
          0.52,
          0.92,
          1.0
        ],
        "metallicFactor": 0.05,
        "roughnessFactor": 0.48
      }
    }
  ],
  "meshes": [
    {
      "primitives": [
        {
          "attributes": {
            "POSITION": 0
          },
          "indices": 1,
          "material": 0
        }
      ]
    }
  ],
  "nodes": [
    {
      "mesh": 0
    }
  ],
  "scenes": [
    {
      "nodes": [
        0
      ]
    }
  ],
  "scene": 0
}
