{
  "asset": {
    "version": "2.0",
    "generator": "Computer_Graphics legacy converter"
  },
  "extras": {
    "source": "legacy/2022CG_Lab4/Mesh/Grid4x4.asc"
  },
  "buffers": [
    {
      "uri": "grid4x4_from_asc.bin",
      "byteLength": 684
    }
  ],
  "bufferViews": [
    {
      "buffer": 0,
      "byteOffset": 0,
      "byteLength": 300,
      "target": 34962
    },
    {
      "buffer": 0,
      "byteOffset": 300,
      "byteLength": 384,
      "target": 34963
    }
  ],
  "accessors": [
    {
      "bufferView": 0,
      "componentType": 5126,
      "count": 25,
      "type": "VEC3",
      "min": [
        -1.0,
        0.0,
        -1.0
      ],
      "max": [
        1.0,
        0.0,
        1.0
      ]
    },
    {
      "bufferView": 1,
      "componentType": 5125,
      "count": 96,
      "type": "SCALAR"
    }
  ],
  "materials": [
    {
      "name": "grid4x4_showcase_material",
      "pbrMetallicRoughness": {
        "baseColorFactor": [
          0.72,
          0.72,
          0.76,
          1.0
        ],
        "metallicFactor": 0.75,
        "roughnessFactor": 0.32
      }
    }
  ],
  "meshes": [
    {
      "primitives": [
        {
          "attributes": {
            "POSITION": 0
          },
          "indices": 1,
          "material": 0
        }
      ]
    }
  ],
  "nodes": [
    {
      "mesh": 0
    }
  ],
  "scenes": [
    {
      "nodes": [
        0
      ]
    }
  ],
  "scene": 0
}
