{
  "asset": {
    "version": "2.0",
    "generator": "Computer_Graphics legacy converter"
  },
  "extras": {
    "source": "legacy/2022CG_Lab3/Mesh/skull.asc"
  },
  "buffers": [
    {
      "uri": "skull_from_asc.bin",
      "byteLength": 47928
    }
  ],
  "bufferViews": [
    {
      "buffer": 0,
      "byteOffset": 0,
      "byteLength": 22920,
      "target": 34962
    },
    {
      "buffer": 0,
      "byteOffset": 22920,
      "byteLength": 25008,
      "target": 34963
    }
  ],
  "accessors": [
    {
      "bufferView": 0,
      "componentType": 5126,
      "count": 1910,
      "type": "VEC3",
      "min": [
        -0.690082,
        -1.0,
        -0.766335
      ],
      "max": [
        0.690082,
        1.0,
        0.766335
      ]
    },
    {
      "bufferView": 1,
      "componentType": 5125,
      "count": 6252,
      "type": "SCALAR"
    }
  ],
  "materials": [
    {
      "name": "skull_showcase_material",
      "pbrMetallicRoughness": {
        "baseColorFactor": [
          0.72,
          0.63,
          0.46,
          1.0
        ],
        "metallicFactor": 0.0,
        "roughnessFactor": 0.72
      }
    }
  ],
  "meshes": [
    {
      "primitives": [
        {
          "attributes": {
            "POSITION": 0
          },
          "indices": 1,
          "material": 0
        }
      ]
    }
  ],
  "nodes": [
    {
      "mesh": 0
    }
  ],
  "scenes": [
    {
      "nodes": [
        0
      ]
    }
  ],
  "scene": 0
}
