{
  "asset": {
    "version": "2.0",
    "generator": "Computer_Graphics legacy converter"
  },
  "extras": {
    "source": "legacy/2022CG_Lab3/Mesh/teapot.obj"
  },
  "buffers": [
    {
      "uri": "teapot_from_obj.bin",
      "byteLength": 119568
    }
  ],
  "bufferViews": [
    {
      "buffer": 0,
      "byteOffset": 0,
      "byteLength": 43728,
      "target": 34962
    },
    {
      "buffer": 0,
      "byteOffset": 43728,
      "byteLength": 75840,
      "target": 34963
    }
  ],
  "accessors": [
    {
      "bufferView": 0,
      "componentType": 5126,
      "count": 3644,
      "type": "VEC3",
      "min": [
        -3.0,
        0.0,
        -2.0
      ],
      "max": [
        3.434,
        3.15,
        2.0
      ]
    },
    {
      "bufferView": 1,
      "componentType": 5125,
      "count": 18960,
      "type": "SCALAR"
    }
  ],
  "materials": [
    {
      "pbrMetallicRoughness": {
        "baseColorFactor": [
          0.18,
          0.52,
          0.92,
          1.0
        ],
        "metallicFactor": 0.05,
        "roughnessFactor": 0.48
      }
    }
  ],
  "meshes": [
    {
      "primitives": [
        {
          "attributes": {
            "POSITION": 0
          },
          "indices": 1,
          "material": 0
        }
      ]
    }
  ],
  "nodes": [
    {
      "mesh": 0
    }
  ],
  "scenes": [
    {
      "nodes": [
        0
      ]
    }
  ],
  "scene": 0
}
